<svg height="700" viewBox="0 0 229.99999 230" width="3500" xmlns="http://www.w3.org/2000/svg" xmlns:xlink="http://www.w3.org/1999/xlink"><clipPath id="a"><path d="m107.5034 0h396.6012v791.4563h-396.6012z"/></clipPath><clipPath id="b"><path d="m107.3465 0h397.3069v792h-397.3069z"/></clipPath><clipPath><path d="m0 792h612v-792h-612z"/></clipPath><clipPath><path d="m0 792.03h612v-792h-612z"/></clipPath><clipPath><path d="m0 792h612v-792h-612z"/></clipPath><clipPath><path d="m0 792.03h612v-792h-612z"/></clipPath><clipPath><path d="m0 792h612v-792h-612z"/></clipPath><clipPath><path d="m0 792.03h612v-792h-612z"/></clipPath><clipPath><path d="m0 792h612v-792h-612z"/></clipPath><clipPath><path d="m0 792.03h612v-792h-612z"/></clipPath><clipPath id="c"><path d="m160.07 467.52h65.8v144.374h-65.8z"/></clipPath><clipPath><path d="m0 792h612v-792h-612z"/></clipPath><clipPath><path d="m0 792.03h612v-792h-612z"/></clipPath><g clip-path="url(#a)" transform="matrix(.2639999934 0 0 -.2639999934 19.50738506511 219.47222939306)"><path d="m244.7912 561c-1.9369 1.6154-3.6594 5.1624-5.1519 10.1679-1.4951 5.0082-2.7603 11.4775-3.7901 18.9427-1.0299 7.4652-1.8245 15.9262-2.3734 24.9179-.5463 8.9917-.8495 18.514-.8992 28.0964-.047 9.585 2.1617 20.1555 2.6322 29.4007.4705 9.2453-.8025 17.1653.2039 25.1375 1.0063 7.9723 2.2845 15.0768 3.845 20.843 1.5604 5.7688 4.2736 8.8949 6.4065 11.5245 2.0676 2.5511 5.6878 6.106 12.0003 8.0507 6.3125 1.9421 14.4442 3.5836 23.7966 4.9193 9.3498 1.3383 20.1084 4.1612 31.2931 4.8905 11.1847.7319 22.8007-.6273 34.6154-.5019 11.8173.1255 24.2828-2.0675 35.5224-2.5485 8.7146-.3712 18.1245 1.1135 30.7233-.3267 9.4648-1.0848 17.7377-2.4701 24.2148-4.1587 6.4824-1.6859 11.169-3.6777 13.4588-5.97 1.7408-1.7409 3.0686-5.4918 4.0305-10.7561.9646-5.2617.4784-9.3341.7633-17.1234.2823-7.7893 1.3304-19.3007 1.0325-28.627-.2954-9.3262-.8574-19.1727-1.6337-29.0426s-1.767-19.7634-2.9197-29.1864c-1.1579-9.4203-4.6344-18.8668-6.0668-26.8469-1.4297-7.9802-.8207-14.4965-2.4308-20.0484-1.6102-5.5466-3.2857-9.632-4.9742-11.7545-1.686-2.1225-5.7531-6.1269-11.3259-7.8416-5.5701-1.7147-12.6485-1.1422-21.052-2.3891-8.4036-1.2494-17.9599-2.2505-28.1409-2.9798-13.6914-.9775-23.7312-2.7968-31.8368-2.9066-10.905-.1516-21.9643 1.5788-32.5399 2.065-10.5757.4835-20.7227 1.2991-29.9157 2.4727-9.1929 1.1762-18.3545.9462-25.1087 2.8674-6.7569 1.9186-11.109 5.9884-14.3789 8.712" fill="#fff"/><path d="m502.2592 770.5454c-.2196 4.8801 1.0534 9.5223.4339 11.7624-8.4951 1.5239-19.0054 2.6661-30.3731 3.5444-11.3651.8783-26.0968.3476-38.0212.8103-11.9271.4653-21.0468 1.9212-31.2174 2.1983-10.1705.2796-20.1894 2.2688-26.2876 2.5955-6.1007.3267-17.0737-1.3618-32.4432-1.4219-15.3695-.0628-33.8312-.2405-52.2903-.3738-13.3072-.0993-24.0554-.6927-35.5067-.3842-4.4331.1202-10.0843 1.2807-14.3736 1.3069-15.3722.1045-30.0621-.6509-36.1602 0-5.1179-2.9406-11.5454-6.4928-18.399-10.249-6.8561-3.7587-15.2832-7.3371-22.1158-11.0958-6.8327-3.7587-12.0761-7.6926-17.1339-10.6332-5.0552-2.9406-8.7852-5.2695-10.3117-6.5765.1098-6.3151.0261-14.797-.1359-24.3063-.1124-6.5398-.264-13.579-.4182-20.7227-2.0676-1.6258-4.4619-4.5821-6.4171-5.7217-2.3472-1.3697-4.0567-.081-6.5895-1.7983-2.5302-1.7147-5.1859-3.6333-8.0246-5.8185-2.8386-2.1852-5.8602-4.637-9.1276-7.4129 1.469-3.9208 2.41-9.7602 2.9511-16.6529.5411-6.8928.6848-14.8363.562-22.9628-.1229-8.1291-2.3394-17.4501-2.8596-25.0774-.5202-7.6272.6535-13.5607 0-18.9505.9802-1.7983 2.4492-3.594 4.3076-5.3505 1.8585-1.7566 12.7295-6.5086 15.7329-7.9383 2.3734-1.1292 4.4069-3.2883 6.7673-4.7102-.4026-8.5813-.6875-16.93-.664-24.2854.0288-9.1328.5254-16.7496 1.8324-21.4337 5.0107-3.1575 8.4349-8.3565 14.716-11.8669 6.2837-3.513 15.4296-5.3401 21.9381-8.5891 6.5086-3.2465 12.8681-6.2106 18.5532-8.5761 5.6852-2.3708 10.6933-4.143 14.507-5.0134 10.0476.8234 16.0569-.2143 26.4679.3973 4.7102.2745 13.7881 2.2767 18.4879 2.5145 19.8 1.0064 34.4167-.2117 43.8109.0994.3764.0104.7423.0366 1.1187.0522-.162-13.2339-3.1392-28.2061-3.7326-50.1521-.6534-24.1051 1.5788-56.6215.4339-82.3105-1.1422-25.689-4.6814-45.9778-5.6616-64.9362-.6901-13.3333-.115-25.987.23-33.7005-10.9913-2.2819-18.9348-10.1914-16.7862-19.0158.6979-2.8674 2.4753-5.8316 5.084-8.5866-5.3009-7.3266-10.4215-16.3418-15.5394-24.0867-6.208-9.3916-12.4159-16.8803-20.2575-30.2737 0-11.109.9097-18.5428 1.5265-35.9406.2457-6.9686-1.7617-18.2892-1.3095-26.5778.2692-4.901.7266-9.5902 1.2102-13.9815-9.5615-.562-25.1218-.8208-36.4973-2.1356-14.1306-1.631-21.3448-4.0305-30.4934-5.6616-9.1485-1.6363-17.4266-6.0746-22.6543-12.20148-5.2277-6.12428-7.622-12.41584-3.0504-20.91089 12.4159-5.55184 29.2152-11.86693 47.9226-20.03786 18.7048-8.1657 37.7912-19.06028 53.8011-25.26559 10.4214 0 28.4832-.36594 51.1898 1.30693 12.8864.94884 28.1278 3.61236 42.1747 4.73632 14.8337 1.18669 29.751 2.39691 43.56 3.47644 22.3119 1.74344 41.7303 3.14447 53.2339 3.54962 8.1709 6.53465 10.9468 15.68317 9.7209 23.84887-1.2259 8.17093-7.9775 13.61299-15.819 16.22685-7.8416 2.61387-20.2026 9.09624-36.7849 14.6507-15.8662 5.31399-34.1998 11.37549-52.0707 17.04239-.4888 6.8509-.975 14.9539-.8888 23.6371.1543 15.1944 2.0702 32.0198 1.7435 48.3565-2.6139 4.8983-5.6904 18.6211-8.712 30.0594-2.5642 9.7026-5.1075 17.7533-9.2086 24.9623 3.4163 2.6871 5.6825 5.9649 6.5947 9.4518 2.1643 8.2807-3.2725 17.6827-12.6929 22.4896.4313 12.3244 1.5788 31.0606 2.2375 50.2646.7763 22.6047.8704 45.8236 1.8506 71.5518.9802 25.7309 4.3416 51.2369 5.1179 72.2106.6378 17.275-.4757 31.463-.7972 40.588.7031.0314 1.4167.0732 2.1016.0889 11.0121.2744 20.1528.4914 26.5777.7083 4.1952.1438 10.6567-1.252 17.8631-1.3069 3.8319-.0287 7.5672 1.3226 11.9715 1.273 7.4103-.0837 18.0932-1.2233 26.3634-1.273 5.8812-.034 15.874 2.1434 21.7839 2.1773 14.7108.0837 21.8807-.6822 32.4459.17 11.0436.8913 19.3217 2.3341 22.4818 4.6239 1.3069 5.7714-.0575 13.1033.8365 21.3448.8939 8.2441 4.0488 17.4004 4.5899 26.9567s2.1355 20.8351 2.3786 30.5508c.2379 9.7131-.873 17.8605-.873 26.5725 0 8.7147.5437 21.9722 1.2886 37.2345.7397 15.2597 2.2793 34.4821 3.0713 51.2003.7868 16.7183.8286 30.9325.9724 44.0148.0784 7.2404-1.6311 10.8632-1.8454 15.6701" fill="#424a52"/></g><g clip-path="url(#b)" transform="matrix(.2639999934 0 0 -.2639999934 19.50738506511 219.47222939306)"><path d="m190.3366 773.5932c2.9197 1.5814 6.1034 3.6803 8.9734 5.6119-.0758-7.0182-.0392-17.6592-.2614-22.1655-.3136-6.3595-2.1355-14.9565-2.4126-22.095-.2744-7.1384.8888-13.613.6718-21.0337-.2196-7.4181-1.8192-15.7825-1.9578-22.9863-.1411-7.2064-.2352-14.1828-.2744-20.6809-.0419-6.4954-.0288-12.5151.0496-17.8082s.2222-9.8595.4392-13.4536c.2195-3.594.3894-7.9252.5227-12.7948.1203-4.3181.2118-9.078.2876-14.1122-2.112.3084-4.752.3241-7.7815.7658-4.7834.7031-10.5339 2.478-16.3889 2.9955-.6064.0549-1.2207.1124-1.8297.1673-.5333 3.2647-.8469 8.0036-1.0168 13.6705-.2039 6.8431-.2039 14.9983-.149 23.4097.0549 8.414.1621 17.0868.1751 24.9624.0157 7.8756-1.3723 12.7766-1.7016 18.0043-.3241 5.2277.6561 13.1503.3686 19.0786-.285 5.9282.6665 10.2463.5044 16.2085-.1646 5.9622-1.4428 13.5712-1.4036 18.9008.0366 4.556.1673 8.7199.4077 12.361 2.0101 1.1057 4.0332 2.2139 6.059 3.317 6.9555 3.7848 11.0749 4.6213 16.7182 7.6769" fill="#a09d9e"/><path d="m154.8665 755.4948c2.5276 1.4481 5.2016 2.9511 7.9279 4.4697-.251-3.6829-.366-7.7684-.366-12.1623 0-4.9611.136-10.2855.3529-15.759.2196-5.4708.5176-11.0932.8443-16.6555s.6822-11.0618 1.0089-16.2896c.3268-5.2277.4078-12.306.3947-20.1816-.013-7.8755 1.4011-19.3269 1.3488-27.7383-.0549-8.414-1.5814-13.7881-1.3749-20.6312.1751-5.9308.5097-10.871 1.09-14.141-3.8529.379-7.6743.8051-11.2658 1.3723-4.3128.677-8.2676 1.5579-11.5715 2.7419.008.6326.0156 1.2599.0313 1.9055.2196 8.699 1.09 18.5166.8704 23.9613-.2169 5.4447-1.5447 12.2799-1.7408 21.3474-.1986 9.0649 1.8794 20.5816 1.7408 30.9298-.1359 10.3457-2.5772 18.1611-2.6112 27.4456-.0288 7.6168.7868 16.036 1.1449 22.0767 3.3849 2.1721 7.5436 4.6526 12.1753 7.3083" fill="#a09d9e"/><path d="m123.6832 599.774c-2.2767 1.3148-7.5227 2.4936-9.8099 4.6161.4915 2.4518 1.0351 9.01 1.0743 15.8505.0419 6.8404 1.984 13.2679 1.767 21.7891-.2196 8.5238-2.7655 16.0308-3.0504 23.5248-.2875 7.4939 1.6886 14.9748 1.5239 18.7335.9802.3267 2.2296 3.1706 4.1378 4.3547 1.9107 1.1867 4.4801.7083 6.8901 2.342s4.9611 3.3902 7.4443 5.0657c1.2468.8416 2.4779 1.665 3.662 2.4387-.008-.413-.0157-.826-.0261-1.2416-.217-10.4267-.4078-20.7462-.4627-29.8189-.0549-9.0753.0288-16.9038.3555-22.3485s1.767-12.7034 1.3069-22.2178c-.4208-8.6467-2.3943-19.1492-3.1758-29.0557-.0706.0183-.1333.034-.2039.0549-1.5422.4182-9.1564 4.5951-11.433 5.9125" fill="#a09d9e"/><path d="m185.7964 520.1924c-6.7726 2.8648-14.3292 3.7483-20.2914 6.8274-5.9623 3.0765-10.3326 8.3461-14.4364 11.0488-4.1064 2.7027-7.0182 5.0709-8.218 6.8143-.4339 5.8812-3.1575 11.9924-3.0477 20.9083.1071 8.9185 3.0477 20.6391 3.3744 30.4959.2536 7.6011.0549 13.8509.0497 20.3019 3.6071-1.0299 8.4088-.826 13.1294-1.5683 5.4944-.8652 10.8632-3.0217 16.7183-3.5418 5.855-.5176 11.5323-.9933 16.3157-1.6938 2.6897-.3947 5.0814-.8652 7.0784-1.4455.2666-4.8408 1.2337-8.6492 1.2755-14.2298.0471-6.2602-1.0769-14.7579-1.0351-21.1305.0392-6.37.0837-12.7007.1438-18.7963.0601-6.0955.1385-11.9558.2431-17.3874.1045-5.4316.2405-10.4371.4156-14.8179.0967-2.3734.2039-4.5455.3267-6.5242-3.994 1.4585-8.0376 3.0451-12.042 4.7389" fill="#a09d9e"/><path d="m329.3078 259.5355c-2.2871-5.3924-16.3392-16.4464-28.7525-16.1223-12.4158.3294-21.3212 8.0873-23.5247 14.3763-1.997 5.6903 3.811 12.1231 10.0163 13.7855.0131-.643.0183-1.1972.003-1.584 2.9406-3.7588 6.2497-6.2498 9.6399-7.7214 3.3876-1.469 6.8614-1.9186 10.1287-1.5918 3.2674.3267 6.3282 1.4298 8.9029 3.0634 2.3446 1.4873 4.2501 3.4294 5.5649 5.6172 5.1832-2.8883 10.0241-5.1049 8.0219-9.8229" fill="#bbbaba"/><path d="m322.3366 467.3375c-.1882-7.5645-1.8244-26.4209-1.7434-33.9802.1699-15.6387-2.065-35.7602-2.4231-52.1962-.5306-24.3821-1.0403-47.6821-1.5421-66.562-.4993-18.8799-.9881-33.3372-1.4795-40.0339-1.469-2.6138-3.1863-4.454-5.0029-5.6276s-3.7378-1.6833-5.6146-1.6441c-1.8794.0418-3.7169.6325-5.3715 1.665-1.6545 1.0325-3.1235 2.5015-4.2684 4.2998.3267 8.8192-1.3854 24.3507-.4365 45.0891.9488 20.7358 4.5612 46.681 5.5832 71.7976.4208 10.39-1.5945 20.788-1.2259 31.0134.5228 14.4991.5541 28.9433.8704 41.8218.4522 18.3728 2.6191 34.0769 3.0295 45.3217 8.0454.5751 15.6857 1.4481 22.7066 1.9578-.8861-8.0271-2.6505-25.7256-3.0818-42.9222" fill="#a09d9e"/><path d="m496.5975 732.2079c-.1411-5.3976-1.6519-13.1189-1.7983-18.6786-.3555-13.4771-1.7643-24.3482-2.1224-36.2125-.3608-11.8643.3241-24.7219 0-31.3663-.3294-6.6418.9723-17.8475.4339-29.6229-.5411-11.7754-2.9145-24.1233-3.5392-37.0306-.6247-12.9046-1.2651-25.3753-1.8585-35.4073-.5933-10.0347-1.137-17.6331-1.5709-20.7907-3.9312-.873-7.0757-2.9354-12.6354-3.4843-4.1456-.413-10.411.6247-15.1865.3607-11.1821-.6194-27.639-2.8935-40.1411-2.9745-12.4969-.0837-21.0338 2.0283-31.8368 2.1172-10.8031.0863-20.4431-1.5735-26.5412-1.6833s-17.1783 1.2808-31.3167.7841c-6.5215-.23-11.4173-3.1157-18.7806-3.398-8.5969-.3267-19.766 1.9473-28.6975 1.5788-9.8465-.4026-16.6765-2.1042-24.0162-2.0127-7.7606.0941-15.8844 1.9892-20.9109 1.7408-13.43-.6587-25.3754-3.0477-30.0594-3.4842-.7632.2404-1.5422.5123-2.3133.7684-.2091 2.6583-.3868 5.8211-.5306 9.4387-.1777 4.3808-.311 9.3838-.4182 14.8154-.1046 5.4316-1.469 11.5741-1.5291 17.6723-.0601 6.0955 1.1841 12.1414 1.1423 18.514-.0419 6.3699-.0785 12.7844-.1255 19.0419-.0471 6.2602-.102 12.3662-.1804 18.1246-.0784 5.7583-1.9264 26.1098-2.1433 29.7039-.2196 3.594.9436 7.29.8678 12.5831-.0785 5.2931-.9097 14.4651-.8678 20.9606.0392 6.498.9514 10.3221 1.0899 17.5285.1412 7.2064.3242 14.6429.5437 22.061.217 7.4208.4679 14.8232.745 21.9617.2744 7.1358.575 14.0103.8887 20.3724.311 6.3595.6378 12.2093.9697 17.2985.2274 3.5392.4601 6.6837.6901 9.4073.4156.2614.8207.515 1.171.7188 5.314.1569 8.1265-2.2479 14.3762-2.1799 6.817.0758 17.1417 2.6138 24.6697 2.6086 3.3457 0 5.8812-1.7225 9.3105-1.7356 11.352-.0418 23.909 1.5762 35.2872 1.4716 14.8127-.1359 28.6976-2.2819 40.9513-2.3446 12.2512-.0601 22.8713 1.963 29.6229 2.1799 6.7516.217 17.262.0262 29.5759-.3816s26.596-3.3222 40.5645-3.9757c13.9685-.6534 27.6233.9541 39.336.4365 11.7179-.5175 21.3265-.873 26.8835-.873-.2195-5.8812-.4914-15.4636-.7972-26.9489-.1803-6.7464.9959-11.9715.7972-19.6641" fill="#bbbaba"/><path d="m176.9406 753.5553c0-2.1643-1.0246-3.9208-2.2871-3.9208s-2.2872 1.7565-2.2872 3.9208 1.0247 3.9208 2.2872 3.9208 2.2871-1.7565 2.2871-3.9208" fill="#424a52"/><path d="m258.9505 191.5751c3.9208-2.4518 9.2295-4.4932 15.3068-6.0249 6.0746-1.5317 12.9151-2.5538 19.8993-2.9615 6.2314-.366 10.8632-1.6206 16.5091-1.239-1.0089 6.1138-3.0556 16.0988-4.0122 25.4695-1.1031 10.7952-.7711 20.7566-2.5878 30.4933-.23.005-.4469-.003-.6796.005-8.6414.3241-16.3889 3.0844-22.2648 6.9372-4.8174-5.4525-11.3207-13.7986-17.16-23.0595-5.531-8.7643-11.9428-18.9322-15.3016-25.5244 2.891-1.55 6.6863-3.4581 11.1534-5.4028-.332.4208-.6274.8521-.8626 1.3069" fill="#bbbaba"/><path d="m329.5248 218.0379c-2.4806 8.4663-4.9612 16.3967-7.5619 22.4217-3.7013-1.6232-8.1109-2.708-13.1373-3.0504 2.1512-10.0582 3.6855-21.8911 4.7703-32.5217.9357-9.1642 1.5369-17.4005 1.9159-22.8321 6.0668 1.3148 12.8942 4.1299 17.2803 6.2524-.6744-.8155-1.4873-1.5683-2.3682-2.2897 4.3051 1.8244 7.4443 3.6515 9.1642 4.7493-2.9406 8.6781-7.3371 17.973-10.0633 27.2705" fill="#bbbaba"/><path d="m249.3811 159.754c.562-5.6094-1.1631-14.1489-1.103-19.5883.1621-15.3538.4339-27.4455.4339-37.901 0-6.14518 4.4854-10.19405 15.2493-13.06929 7.5436-2.01529 24.0187-5.19375 33.1097-5.22773 4.1822-.01307 8.2964.20388 12.2225.6587.1202 7.22732.69 26.19612 1.1997 45.19362.5725 21.4023 1.0613 42.8046.7345 47.3789-.0261.3555-.0706.7815-.1307 1.239-8.2284-1.5135-17.1626-1.8585-24.4814-1.239-7.7606.6535-11.2004 3.1706-15.6832 5.6616-3.9469 2.1904-8.6963 4.3625-11.1193 7.4077-4.4671 1.9447-8.2624 3.8528-11.1534 5.4028-.7083-1.3905-1.2912-2.6347-1.6885-3.662 0-11.3964 1.3853-22.0218 2.4099-32.255" fill="#a09d9e"/><path d="m315.802 177.8524c.3267-4.5743 1.8793-25.4329 1.3069-46.8352-.5071-18.9819-2.6792-38.36627-3.168-45.70338 14.4991 2.53806 25.3858 8.78258 25.3858 19.56478 0 14.7056-1.3069 35.5616-1.3069 51.4094 0 15.8452 1.7434 32.3439 1.7434 36.5941-.0548.1646-.1202-2.2819-.1751-2.1147-1.7199-1.0978-4.8591-2.9249-9.1642-4.7493-3.6202-2.9511-8.8374-5.1284-14.7317-6.6053.0392-.5593.0758-1.1109.1098-1.5604" fill="#a09d9e"/><path d="m179.1206 703.892c0-2.1643-1.0273-3.9208-2.2872-3.9208-1.2625 0-2.2897 1.7565-2.2897 3.9208 0 2.1642 1.0272 3.9208 2.2897 3.9208 1.2599 0 2.2872-1.7566 2.2872-3.9208" fill="#424a52"/><path d="m181.2979 669.4752c0-2.1642-1.0246-3.9207-2.2871-3.9207s-2.2872 1.7565-2.2872 3.9207c0 2.1669 1.0247 3.9208 2.2872 3.9208s2.2871-1.7539 2.2871-3.9208" fill="#424a52"/><path d="m179.991 627.2196c0-2.1643-1.0247-3.9208-2.2872-3.9208s-2.2871 1.7565-2.2871 3.9208c0 2.1642 1.0246 3.9208 2.2871 3.9208s2.2872-1.7566 2.2872-3.9208" fill="#424a52"/><path d="m184.0189 595.5788c0-2.1643-1.0246-3.9208-2.2871-3.9208s-2.2871 1.7565-2.2871 3.9208c0 2.1669 1.0246 3.9208 2.2871 3.9208s2.2871-1.7539 2.2871-3.9208" fill="#424a52"/><path d="m155.9199 600.4798c0-2.1643-1.022-3.9208-2.2871-3.9208-1.2625 0-2.2871 1.7565-2.2871 3.9208 0 2.1669 1.0246 3.9208 2.2871 3.9208 1.2651 0 2.2871-1.7539 2.2871-3.9208" fill="#424a52"/><path d="m240 735.2583c-2.112-3.2752-3.9757-8.2415-5.5832-14.4625-1.6049-6.221-2.9589-13.6914-4.0437-21.9773-1.0873-8.286-1.5813-17.2568-2.1355-26.7294-.5515-9.47-1.1605-19.4367-1.1631-29.2099-.003-9.7732.2718-19.4759.8338-28.6714.562-9.1956 3.1105-16.7157 4.2501-24.4553.7659-5.1938.0889-13.2575 2.606-21.0887 1.733-5.3976 3.7666-9.4072 6.1086-11.5846 3.4425-3.2046 7.3398-6.4118 14.3737-8.712 3.7064-1.2102 13.017-3.0582 26.7607-5.1493 9.5484-1.4507 20.1999-.2954 31.1807-.9514 10.9809-.6535 22.2884-3.121 33.6247-3.0347 11.3363.0888 19.8026 1.8218 30.4149 2.6008 10.6123.7763 23.3679.5985 32.1767 2.01 8.8087 1.4141 15.048 4.2711 20.9736 6.2654 5.9256 1.9996 11.5402 3.1367 13.5032 5.6643 1.5265 1.9604 3.1471 6.004 4.7807 11.6107 1.6311 5.6068 4.5403 10.2333 6.1139 18.4487 1.5709 8.218 1.8061 20.0222 3.1523 29.8085 1.3461 9.7863 2.5354 20.1006 3.4895 30.4201.954 10.3169-.9384 21.0076-.5463 30.82.3947 9.8151 3.0713 18.7545 2.7367 27.0247-.332 8.2703-1.0717 15.5081-2.2976 21.1984-1.2259 5.6878-4.684 8.9577-6.9738 11.0253-3.2385 2.9328-7.0678 6.3386-14.3684 8.4872-7.2979 2.146-18.1741 6.255-28.3238 7.6325-10.147 1.3775-19.5699.0261-31.3611.6508-11.7911.6248-23.5038-1.8453-35.7288-1.9577-12.2277-.1124-24.7063 4.3233-36.1576 3.4842-11.4487-.8364-22.4687-4.224-31.9388-5.7687-9.4674-1.5422-16.2399-4.6292-22.5158-6.864-6.2785-2.2349-12.0629-3.6229-13.9423-6.5347" fill="#424a52"/><path d="m237.8227 759.6535c0-3.3667-1.4978-8.137-3.7039-10.3457-2.2087-2.2061-5.1258-1.8506-8.495-1.8506-3.3693 0-6.4171 1.3644-8.6258 3.5731-2.2061 2.2061-4.4435 4.3835-4.4435 7.7527 0 3.3693 1.7146 8.5735 3.9207 10.7822 2.2088 2.2061 5.7793 2.2872 9.1486 2.2872 3.3692 0 5.6328-2.0415 7.8415-4.2476 2.2061-2.2087 4.3574-4.5821 4.3574-7.9513" fill="#424a52"/><path d="m233.9019 759.6535c0-2.2845-.928-4.3547-2.4257-5.8525-1.4977-1.4977-3.5653-2.423-5.8524-2.423-2.2872 0-5.0369.0261-6.5347 1.5239-1.4977 1.4977-1.7408 4.4671-1.7408 6.7516 0 2.2871.9253 4.3573 2.423 5.855 1.4978 1.4951 3.5653 2.4231 5.8525 2.4231 2.2871 0 4.3547-.928 5.8524-2.4231 1.4977-1.4977 2.4257-3.5679 2.4257-5.855" fill="#bbbaba"/><path d="m484.2706 765.4144c2.5903-2.1538 5.3113-6.3464 5.6015-9.4543.2927-3.1079-1.8454-5.1284-3.9914-7.7214-2.1512-2.5955-5.1493-4.0697-8.2572-4.3651-3.1052-.2875-6.2105-.6195-8.8035 1.5265-2.5955 2.1486-5.5126 6.7908-5.8001 9.8987-.2954 3.1052 1.9238 5.9099 4.0724 8.5029 2.1512 2.5955 5.1676 3.0373 8.2755 3.3274 3.1052.2928 6.3072.4313 8.9028-1.7147" fill="#424a52"/><path d="m481.7665 762.3928c1.7617-1.4585 2.7602-3.4921 2.9589-5.6015.1986-2.1042-.4104-4.2894-1.8663-6.0511-1.4585-1.7617-3.236-3.8633-5.3401-4.0619-2.112-.1961-4.5534 1.5082-6.3125 2.9667s-2.7629 3.4947-2.9641 5.5989c-.1934 2.112.4104 4.2972 1.8715 6.0589 1.4559 1.7591 3.4947 2.7629 5.5963 2.9589 2.112.196 4.2972-.4104 6.0563-1.8689" fill="#bbbaba"/><path d="m461.2372 528.975c-3.1941 1.0638-7.2482 3.9913-8.6466 6.7803-1.3958 2.7969-.1359 5.4499.9279 8.6441 1.0638 3.1993 3.3222 5.659 6.1164 7.06 2.789 1.3932 5.5649 2.8282 8.7591 1.7617 3.1941-1.0638 7.5932-4.3337 8.9917-7.1253 1.3958-2.789.3424-6.2053-.7215-9.4021-1.0638-3.1941-3.7143-4.6971-6.5085-6.0981-2.7916-1.3985-5.7217-2.6845-8.9185-1.6206" fill="#424a52"/><path d="m462.4788 532.6945c-2.1695.724-3.8424 2.2558-4.7886 4.1508-.9488 1.8924-1.1736 4.1482-.4522 6.3177s1.618 4.7703 3.513 5.7165c1.8925.9489 4.7886.2431 6.9581-.4783 2.1669-.7214 3.8372-2.2558 4.786-4.1482.9462-1.8977 1.171-4.1508.4496-6.3203-.724-2.1669-2.2557-3.8398-4.1482-4.786-1.895-.9488-4.1508-1.1736-6.3177-.4522" fill="#bbbaba"/><path d="m235.3526 523.6897c-2.2819-2.4805-6.6131-4.9741-9.7315-5.1048-3.1209-.1255-5.0264 2.112-7.5017 4.3913-2.4806 2.2845-3.798 5.3531-3.9287 8.4741-.1254 3.1183-.2979 6.2367 1.984 8.7146 2.2819 2.478 7.0678 5.1441 10.1888 5.2748 3.1183.1281 5.8001-2.2323 8.2781-4.5142 2.4779-2.2819 2.7602-5.3139 2.8935-8.4375.1255-3.1183.0994-6.3203-2.1825-8.7983" fill="#424a52"/><path d="m232.4695 526.3454c-1.5501-1.6807-3.6333-2.5746-5.7505-2.6635-2.1146-.0889-4.2659.6326-5.944 2.18-1.6859 1.5474-3.6907 3.4346-3.777 5.5492-.0862 2.1172 1.7435 4.4671 3.2935 6.1504 1.5474 1.6781 3.6306 2.5747 5.7453 2.6635 2.1198.0837 4.2658-.6351 5.9491-2.1852 1.6807-1.5448 2.5773-3.6306 2.6635-5.7452.0863-2.1146-.6325-4.2685-2.1799-5.9492" fill="#bbbaba"/><path d="m232.5766 643.1249c.008-1.482.0314-2.9589.0523-4.4383 9.6478-1.1266 18.0853.0157 26.1046-.1412 8.4376-.1646 16.4282-1.8009 18.7022-1.6389.5254.0392.9959.3921 1.4795.9959.4835.6038.9802 1.4559 1.5552 2.4806.6927 1.2337 1.5161 2.6975 2.6479 3.7848 1.1318 1.09 2.5772 1.8062 4.5167 1.5474 1.8323-.243 2.9301-1.4977 3.6646-3.2882.7319-1.7905.1621-5.4081.5437-7.8024.3529-2.2191 1.652-2.9484 2.1303-4.3886.4784-1.4377 1.0822-2.2898 1.9212-2.1722.8129.3242 1.652 2.6139 2.4283 5.5257.7737 2.9093 1.4899 6.4432 2.0597 9.2583 1.273 6.3125 2.3786 14.8808 4.5298 20.0928 2.1539 5.212 5.3611 7.0679 9.8099 7.2953.7841.0418 1.5317-.0732 2.2217-.3346.6901-.2614 1.32-.6691 1.8742-1.2154 2.0022-1.9735 1.4402-7.0287 1.7774-11.8434.3372-4.8174 1.5762-9.3943 1.3383-15.7329-.196-5.2538-.4182-11.1507-.1804-16.1327.2405-4.9847.9436-9.0518 2.5904-10.6489.2431-.2379.5045-.4051.7972-.5071.2928-.1019.6143-.1385.9828-.1124 2.8909.1961 5.3009 3.8058 7.1045 11.7676s3.0085 20.2757 4.1665 28.742c1.6912 12.3845 3.1575 22.3695 5.1467 29.2073 1.9917 6.8379 4.5115 10.5313 8.3199 10.3352 3.8528-.1986 5.7819-4.8252 6.5242-14.2011.5254-6.6183-.6718-13.8639-1.0691-25.3309-.1646-4.7703.7424-11.7101.4836-17.343-.4052-8.678-.9096-19.5726-.9462-28.5643-.034-8.9969.3973-16.0909 1.8663-17.1652 1.9447.23 3.4372 6.6471 4.5795 14.703 1.1448 8.0559 1.9394 17.7455 2.4962 24.5206.9488 11.5716 2.0937 20.4012 3.283 27.3332 1.1919 6.9372 2.4257 11.9767 4.7442 13.8273.5018.3999 1.0455.6848 1.6153.8469.5672.1647 1.1606.2039 1.7618.1176 3.9182-.5594 5.6956-4.4854 6.3961-10.1993.3685-3.0007 1.2364-5.625 1.1658-9.3837-.0601-3.3981-1.6258-19.7713-1.5997-23.5901.0235-3.8215.298-6.8849 1.1266-7.507 1.699.4234 2.87 2.3211 3.7535 4.8591.8861 2.5355 1.4899 5.7087 2.0571 8.6833.677 3.5783 1.3723 7.2195 2.6348 9.8438 1.2651 2.6269 3.0974 4.2397 6.0615 3.7665 2.6975-.4339 4.2972-1.7173 5.3114-3.2856 1.0168-1.5657 1.4454-3.4137 1.8088-4.9742.3842-1.6467.6848-2.7393 1.1684-3.4293.4835-.6927 1.1501-.9829 2.2662-1.0299 3.7456-.1568 38.5074-.1647 46.017-.0209.4051 4.1796.7815 8.3879 1.1135 12.5988.7763 9.8699 1.3383 19.7164 1.6337 29.0426.2979 9.3263-.7502 20.8377-1.0325 28.627-.2849 7.7893.2013 11.8617-.7633 17.1234-.9619 5.2643-2.2897 9.0152-4.0305 10.7561-2.2898 2.2923-6.9764 4.2841-13.4588 5.97-6.4771 1.6886-14.75 3.0739-24.2148 4.1587-12.5988 1.4402-22.0087-.0445-30.7233.3267-11.2396.481-23.7051 2.674-35.5224 2.5485-11.8147-.1254-23.4307 1.2338-34.6154.5019-11.1847-.7293-21.9433-3.5522-31.2931-4.8905-9.3524-1.3357-17.4841-2.9772-23.7966-4.9193-6.3125-1.9447-9.9327-5.4996-12.0003-8.0507-2.1329-2.6296-4.8461-5.7557-6.4065-11.5245-1.5605-5.7662-2.8387-12.8707-3.845-20.843-1.0064-7.9722.2666-15.8922-.2039-25.1375-.4705-9.2452-2.6792-19.8157-2.6322-29.4007" fill="#1f286d"/><path d="m430.9217 632.0918c-9.5354 0-17.5103-1.5526-21.4546-1.388-2.7027.1124-5.5728 2.8544-6.5817 4.3155-1.009 1.4612-1.4324 3.2752-1.7879 4.8095-.3685 1.5866-.6796 2.7995-1.2364 3.6673-.5515.8704-1.3487 1.3958-2.6844 1.6075-1.0847.1751-1.9003-1.1736-2.5642-3.202-.6639-2.0257-1.1788-4.7311-1.6624-7.2665-.677-3.5496-1.3958-7.3423-2.674-10.4241-1.2834-3.0843-3.1235-5.463-6.038-6.1922-.6273-.1569-1.2416-.1699-1.8192-.0497-.5777.1202-1.1162.3764-1.5893.7659-1.5291 1.2546-2.917 1.218-3.1654 4.9977-.2457 3.7822.6483 11.3807.9672 17.8291.2587 5.267.5855 11.88.3136 17.2515-.277 5.3715-1.1553 9.504-3.3013 9.8098-.034.005-.0732.0131-.1333-.005-.0575-.0157-.1333-.0575-.2431-.1438-1.8218-1.4533-3.1392-7.1044-4.1586-14.3657-1.0247-7.264-1.7513-16.1406-2.4048-24.0502-.4914-6.004-1.8584-9.7314-2.3681-14.601-.596-5.6852-.3503-12.3008-1.1684-16.2556-1.5213-7.3502-3.6176-11.5454-6.9869-11.9401-.5463-.0654-1.0743-.0105-1.5735.1568-.494.1673-.9593.4496-1.3775.839-2.1042 1.9604-3.0112 7.2326-3.2334 15.4846-.115 4.2815.6535 12.8497.8365 18.6838.1699 5.4081-.2614 7.9775.0496 14.6403.3947 8.5264 1.0037 21.6637.9306 32.6942-.0706 11.0357-.8234 19.9646-3.1498 20.0849-2.2034.1124-4.0567-5.3036-5.6041-12.5622-1.5448-7.2561-2.789-16.3524-3.7796-23.598-.4993-3.6516-1.0299-10.1444-1.5161-13.396-1.299-8.7356-2.5589-12.9386-4.1743-18.4304-2.2139-7.5357-5.0186-11.7754-9.1982-12.0603-.92-.0628-1.7931.0523-2.5955.3424-.8051.2875-1.5396.7502-2.1826 1.3749-2.2715 2.2035-3.2935 6.383-3.6856 11.6369-.392 5.2565-.1542 11.5899.0889 18.1036.1908 5.1336.3973 10.6123.2091 15.1447-.1882 4.5351-.7737 8.1265-2.1564 9.4936-.1673.162-.332.277-.5176.345-.1855.0679-.3868.0941-.6299.081-2.9275-.1516-5.0918-3.6855-6.7803-8.4454-1.686-4.7624-2.8962-10.7508-3.9182-15.8034-1.0116-5.0134-.3398-9.9692-1.4899-13.1111-1.1501-3.1393-4.1273-4.4671-6.2576-4.7729-2.8308-.4025-4.522 1.1161-5.6067 3.3666-1.0822 2.2506-1.5579 5.2304-1.9578 7.7449-.1673 1.0691-.413 2.5982-.7162 3.913-.3032 1.3121-.6666 2.4126-1.0769 2.619-.5594.0732-3.3144-.7789-3.9888-1.9786-.6535-1.1658-.6299-3.8659-1.6049-4.9115-.975-1.0455-3.3118-1.5082-4.9297-1.6232-2.3185-.1647-7.7528-.7293-16.3445-.562-8.0115.1569-17.7926.6796-27.5553 1.9395.1385-6.7072.3947-13.3202.7815-19.6667.5489-8.9917 1.3435-17.4527 2.3734-24.9179 1.0298-7.4652 2.295-13.9345 3.7901-18.9427 1.4925-5.0055 3.215-8.5525 5.1519-10.1679 3.2699-2.7236 7.622-6.7934 14.3789-8.712 6.7542-1.9212 15.9158-1.6912 25.1087-2.8674 9.193-1.1736 19.34-1.9892 29.9157-2.4727 10.5756-.4862 21.6349-2.2166 32.5399-2.065 8.1056.1098 18.1454 1.9291 31.8368 2.9066 10.181.7293 19.7373 1.7304 28.1409 2.9798 8.4035 1.2469 15.4819.6744 21.052 2.3891 5.5728 1.7147 9.6399 5.7191 11.3259 7.8416 1.6885 2.1225 3.364 6.2079 4.9742 11.7545 1.6101 5.5519 1.0011 12.0682 2.4308 20.0484 1.4324 7.9801 4.9089 17.4266 6.0668 26.8469.5045 4.1378.975 8.3748 1.4141 12.6511-5.361-.1385-14.3056-.2091-23.0542-.2091" fill="#1f286d"/><g fill="#424a52"><path d="m313.8416 234.7038c4.339 1.4455 4.5742-4.5742 1.3069-5.2277-3.2673-.6534-3.2673 4.5743-1.3069 5.2277"/><path d="m320.3762 202.0306c4.339 1.4454 4.5743-4.5743 1.307-5.2277-3.2674-.6535-3.2674 4.5742-1.307 5.2277"/><path d="m322.3366 171.3177c4.339 1.4455 4.5743-4.5743 1.307-5.2277-3.2674-.6535-3.2674 4.5742-1.307 5.2277"/><path d="m321.6832 136.684c4.339 1.4455 4.5742-4.5742 1.3069-5.2277-3.2673-.6534-3.2673 4.5743-1.3069 5.2277"/><path d="m321.0297 107.9316c4.339 1.4454 4.5743-4.5743 1.3069-5.2278-3.2673-.6534-3.2673 4.5743-1.3069 5.2278"/><path d="m204.0594 74.60483c2.4283.96974 5.8812-4.57426 3.9208-5.22772-1.9604-.65347-7.1881 3.92079-3.9208 5.22772"/><path d="m236.0792 88.3276c2.4283.96975 5.8812-4.57425 3.9208-5.22772-1.9604-.65346-7.1881 3.92079-3.9208 5.22772"/><path d="m183.6634 48.97069c0-3.85544-1.2285-7.34233-3.215-9.86732-1.9865-2.52238-4.7337-4.08286-7.7658-4.08286s-4.9167 2.48056-6.9058 5.00555c-1.9865 2.52499-4.075 5.08919-4.075 8.94463 0 3.85022 1.5448 6.77252 3.5313 9.29751 1.9865 2.51976 4.4174 4.65006 7.4495 4.65006s4.9951-2.39953 6.9816-4.9219c1.9866-2.52499 3.9992-5.17545 3.9992-9.02567"/></g><path d="m176.1904 48.97069c0-2.38384-1.2076-4.31548-2.6975-4.31548s-2.6975 1.93164-2.6975 4.31548 1.2076 4.31549 2.6975 4.31549 2.6975-1.93165 2.6975-4.31549" fill="#bbbaba"/><path d="m262.7092 14.15667c0-3.85021-.1463-6.521581-2.1329-9.043957-1.9891-2.522376-5.727-5.112713-8.759-5.112713-3.0321 0-4.786 2.590337-6.7725 5.112713-1.9866 2.522376-3.2151 6.011877-3.2151 9.864717 0 3.85283 1.2285 7.33972 3.2151 9.86209 1.9865 2.52499 4.2841 2.66092 7.3188 2.66092 3.032 0 6.2236-.13593 8.2127-2.66092 1.9866-2.52237 2.1329-6.83002 2.1329-10.68285" fill="#424a52"/><path d="m256.3183 14.97743c0-2.38385-1.2076-4.31549-2.6975-4.31549s-2.6975 1.93164-2.6975 4.31549c0 2.38384 1.2076 4.31548 2.6975 4.31548s2.6975-1.93164 2.6975-4.31548" fill="#bbbaba"/><path d="m414.6059 23.88024c0-3.85022-1.2285-7.33973-3.2176-9.86472-1.9866-2.52237-4.7337-4.085461-7.7658-4.085461s-7.1411 1.432401-9.1302 3.954771c-1.9866 2.52499-1.848 6.14519-1.848 9.99541 0 3.85283 2.3132 6.53988 4.2972 9.06487 1.9891 2.52499 3.6489 4.88269 6.681 4.88269s5.7792-1.55786 7.7658-4.08285c1.9891-2.52499 3.2176-6.01188 3.2176-9.86471" fill="#424a52"/><path d="m407.1303 23.88024c0-2.38384-1.205-4.31549-2.6949-4.31549-1.4925 0-2.6975 1.93165-2.6975 4.31549s1.205 4.3181 2.6975 4.3181c1.4899 0 2.6949-1.93426 2.6949-4.3181" fill="#bbbaba"/><path d="m430.9217 632.0918c8.7486 0 17.6932.0706 23.0542.2091.1359 1.3069.264 2.6191.3921 3.9365-7.5096-.1438-42.2714-.1359-46.017.0209-1.1161.047-1.7827.3372-2.2662 1.0299-.4836.69-.7842 1.7826-1.1684 3.4293-.3634 1.5605-.792 3.4085-1.8088 4.9742-1.0142 1.5683-2.6139 2.8517-5.3114 3.2856-2.9641.4732-4.7964-1.1396-6.0615-3.7665-1.2625-2.6243-1.9578-6.2655-2.6348-9.8438-.5672-2.9746-1.171-6.1478-2.0571-8.6833-.8835-2.538-2.0545-4.4357-3.7535-4.8591-.8286.6221-1.1031 3.6855-1.1266 7.507-.0261 3.8188 1.5396 20.192 1.5997 23.5901.0706 3.7587-.7973 6.383-1.1658 9.3837-.7005 5.7139-2.4779 9.6399-6.3961 10.1993-.6012.0863-1.1946.0471-1.7618-.1176-.5698-.1621-1.1135-.447-1.6153-.8469-2.3185-1.8506-3.5523-6.8901-4.7442-13.8273-1.1893-6.932-2.3342-15.7616-3.283-27.3332-.5568-6.7751-1.3514-16.4647-2.4962-24.5206-1.1423-8.0559-2.6348-14.473-4.5795-14.703-1.469 1.0743-1.9003 8.1683-1.8663 17.1652.0366 8.9917.541 19.8863.9462 28.5643.2588 5.6329-.6482 12.5727-.4836 17.343.3973 11.467 1.5945 18.7126 1.0691 25.3309-.7423 9.3759-2.6714 14.0025-6.5242 14.2011-3.8084.1961-6.3282-3.4973-8.3199-10.3352-1.9892-6.8378-3.4555-16.8228-5.1467-29.2073-1.158-8.4663-2.3629-20.7802-4.1665-28.742s-4.2136-11.5715-7.1045-11.7676c-.3685-.0261-.69.0105-.9828.1124-.2927.102-.5541.2692-.7972.5071-1.6468 1.5971-2.3499 5.6642-2.5904 10.6489-.2378 4.982-.0156 10.8789.1804 16.1327.2379 6.3386-1.0011 10.9155-1.3383 15.7329-.3372 4.8147.2248 9.8699-1.7774 11.8434-.5542.5463-1.1841.954-1.8742 1.2154-.69.2614-1.4376.3764-2.2217.3346-4.4488-.2274-7.656-2.0833-9.8099-7.2953-2.1512-5.212-3.2568-13.7803-4.5298-20.0928-.5698-2.8151-1.286-6.349-2.0597-9.2583-.7763-2.9118-1.6154-5.2015-2.4283-5.5257-.839-.1176-1.4428.7345-1.9212 2.1722-.4783 1.4402-1.7774 2.1695-2.1303 4.3886-.3816 2.3943.1882 6.0119-.5437 7.8024-.7345 1.7905-1.8323 3.0452-3.6646 3.2882-1.9395.2588-3.3849-.4574-4.5167-1.5474-1.1318-1.0873-1.9552-2.5511-2.6479-3.7848-.575-1.0247-1.0717-1.8768-1.5552-2.4806-.4836-.6038-.9541-.9567-1.4795-.9959-2.274-.162-10.2646 1.4743-18.7022 1.6389-8.0193.1569-16.4568-.9854-26.1046.1412.0183-1.3357.0366-2.6636.0654-3.9914 9.7627-1.2599 19.5438-1.7826 27.5553-1.9395 8.5917-.1673 14.026.3973 16.3445.562 1.6179.115 3.9547.5777 4.9297 1.6232.975 1.0456.9514 3.7457 1.6049 4.9115.6744 1.1997 3.4294 2.0518 3.9888 1.9786.4103-.2064.7737-1.3069 1.0769-2.619.3032-1.3148.5489-2.8439.7162-3.913.3999-2.5145.8756-5.4943 1.9578-7.7449 1.0847-2.2505 2.7759-3.7691 5.6067-3.3666 2.1303.3058 5.1075 1.6336 6.2576 4.7729 1.1501 3.1419.4783 8.0977 1.4899 13.1111 1.022 5.0526 2.2322 11.041 3.9182 15.8034 1.6885 4.7599 3.8528 8.2938 6.7803 8.4454.2431.0131.4444-.0131.6299-.081.1856-.068.3503-.183.5176-.345 1.3827-1.3671 1.9682-4.9585 2.1564-9.4936.1882-4.5324-.0183-10.0111-.2091-15.1447-.2431-6.5137-.4809-12.8471-.0889-18.1036.3921-5.2539 1.4141-9.4334 3.6856-11.6369.643-.6247 1.3775-1.0874 2.1826-1.3749.8024-.2901 1.6755-.4052 2.5955-.3424 4.1796.2849 6.9843 4.5246 9.1982 12.0603 1.6154 5.4918 2.8753 9.6948 4.1743 18.4304.4862 3.2516 1.0168 9.7444 1.5161 13.396.9906 7.2456 2.2348 16.3419 3.7796 23.598 1.5474 7.2586 3.4007 12.6746 5.6041 12.5622 2.3264-.1203 3.0792-9.0492 3.1498-20.0849.0731-11.0305-.5359-24.1678-.9306-32.6942-.311-6.6628.1203-9.2322-.0496-14.6403-.183-5.8341-.9515-14.4023-.8365-18.6838.2222-8.252 1.1292-13.5242 3.2334-15.4846.4182-.3894.8835-.6717 1.3775-.839.4992-.1673 1.0272-.2222 1.5735-.1568 3.3693.3947 5.4656 4.5899 6.9869 11.9401.8181 3.9548.5724 10.5704 1.1684 16.2556.5097 4.8696 1.8767 8.597 2.3681 14.601.6535 7.9096 1.3801 16.7862 2.4048 24.0502 1.0194 7.2613 2.3368 12.9124 4.1586 14.3657.1098.0863.1856.1281.2431.1438.0601.0183.0993.0105.1333.005 2.146-.3058 3.0243-4.4383 3.3013-9.8098.2719-5.3715-.0549-11.9845-.3136-17.2515-.3189-6.4484-1.2129-14.0469-.9672-17.8291.2484-3.7797 1.6363-3.7431 3.1654-4.9977.4731-.3895 1.0116-.6457 1.5893-.7659.5776-.1202 1.1919-.1072 1.8192.0497 2.9145.7292 4.7546 3.1079 6.038 6.1922 1.2782 3.0818 1.997 6.8745 2.674 10.4241.4836 2.5354.9985 5.2408 1.6624 7.2665.6639 2.0284 1.4795 3.3771 2.5642 3.202 1.3357-.2117 2.1329-.7371 2.6844-1.6075.5568-.8678.8679-2.0807 1.2364-3.6673.3555-1.5343.7789-3.3483 1.7879-4.8095 1.0089-1.4611 3.879-4.2031 6.5817-4.3155 3.9443-.1646 11.9192 1.388 21.4546 1.388" fill="#74c128"/><path d="m173.3465 97.47612c.528-.21957 1.0717-.42867 1.6023-.64562l21.635-8.30424c1.0612-.3764 2.125-.74757 3.1889-1.12396 3.8946 3.05821 6.6784 7.35802 13.6548 8.76689 7.6298 1.53695 20.2705-.39208 30.4515-.62994-.711 1.63105-1.1527 3.36142-1.2651 5.20415-.217 3.5967-.7162 7.8469-1.2625 12.5309-9.2949-.9358-22.44-1.4794-34.4612-2.7289-14.1305-1.4716-26.6823-3.9208-34.8506-5.2277-4.1194-.6587-7.4051-1.9029-10.0085-3.5261l11.4487-4.39651c-.0418.02614-.0888.05228-.1333.08103" fill="#bbbaba"/><path d="m428.6345 82.22685c-6.8614 2.61386-22.4896 9.36808-41.7669 14.91992-15.9419 4.59253-35.3054 12.74523-41.5447 15.43483.2431-3.2856.4522-6.2131.5385-8.5708.4077-11.23963-8.1213-21.831-21.7813-26.13864-8.1814-2.5825-18.9819-1.0743-28.6166-1.2259-11.2709-.18036-22.6177 1.28863-31.8943 4.36515-8.5081 2.82297-15.2571 7.00514-18.6264 12.50994-8.3225-.11501-15.8844-.83644-22.4217-2.15121-6.8771-1.38796-12.672-3.39279-17.194-5.9204 3.879-1.33045 7.7632-2.63216 11.6396-3.90249 7.3501-2.40998 14.6611-4.71802 21.8074-6.95287 7.1489-2.23747 14.1331-4.40175 20.8299-6.5242 5.8811-.16468 16.909.16206 30.7547.69267 13.8456.53062 30.5089 1.26772 47.6611 1.92119 17.1548.65346 35.6034 3.49735 51.4068 3.70123 14.7239.19342 27.1188-1.89505 36.6751-2.84388l16.6059.65869c-2.1303 4.44095-8.3409 7.84681-14.0731 10.02677" fill="#bbbaba"/><path d="m194.9109 89.11176c.5567-.20126 1.1161-.39208 1.6729-.5855l-21.635 8.30424c6.5242-2.69751 13.2-5.27216 19.9621-7.71874" fill="#bbbaba"/><path d="m156.1944 96.08554c-2.7786-4.32855-3.432-9.39421-3.1053-13.63912 11.2056-4.57426 24.173-10.59137 37.1351-16.73133-1.3409 3.48166-1.5787 6.75944-.7867 9.76539.9645 3.66463 3.432 6.93718 7.209 9.72095-.196.08625-.3973.17774-.5724.25615-8.1344 3.70385-15.9237 7.71874-22.5943 11.93751l-11.4487 4.39651c-2.5589-1.5971-4.4618-3.55746-5.8367-5.70606" fill="#a09d9e"/><path d="m395.8541 68.91707c-13.6417-.90962-29.5706-1.86891-46.0719-2.72626-16.4987-.85734-33.3006-3.50257-49.2269-4.00182-15.082-.47572-29.3432.95929-40.9435 1.25204-2.7289-5.71652-6.4458-14.43374-5.889-18.8956-3.9731 5.67207-1.5396 14.78661 1.3095 19.65885-3.066.85212-7.1881 2.06495-12.0316 3.58883-5.3558 1.68594-28.9328 10.33259-41.2519 15.28325-3.5941-2.93798-5.6695-6.82218-6.621-10.43192-.8286-3.15755-.805-6.10076.5803-9.53014 3.7169-1.76697 7.4155-3.53133 11.0462-5.25648 18.0539-8.57608 34.5526-16.2556 44.3546-19.19358 13.6627.66392 21.7761.34764 40.2979 1.74083 17.803 1.34091 45.9125 4.37299 63.9298 5.85505 12.6485 1.0377 30.5012 1.09782 41.4951 1.98653 20.9605 1.70424 31.9231 3.92341 39.2079 4.14036 5.2277 4.89838 7.8416 11.27097 7.4338 17.07113-.0653.95406-.345 1.86891-.7658 2.74194l-16.6059-.65869c.7005-.07058 1.4272-.14899 2.0963-.20389-7.3502-.65346-18.7048-1.51342-32.3439-2.42043" fill="#a09d9e"/></g><g clip-path="url(#c)" transform="matrix(.6760511831 0 0 -.6760511831 29.41203681749 532.44112290217)"><path d="m0 0c.268 2.058.278 3.804.103 5.277l2.247 1.027-.5 1.092-1.948-.891c-.399 1.888-1.134 3.238-2.002 4.145-1.376 1.439-3.225 2.25-5.428 2.079-.309-.024-.609-.061-.908-.098l-.064 2.435-1.2-.032.068-2.589c-2.084-.396-3.934-1.124-5.618-2.127-.239.975-.574 1.85-1.017 2.619l2.931 2.236-.728.954-2.885-2.202c-.825.997-1.911 1.731-3.327 2.138-2.908.838-6.067-.161-8.748-1.966l-.695 2.702-1.162-.298.812-3.161c-.418-.33-.822-.678-1.206-1.04-2.137-2.013-3.215-3.966-3.215-3.966.043.037 2.161 1.808 4.857 3.312l.552-2.145 1.162.298-.623 2.422c2.654 1.315 5.646 2.161 7.74.87.367-.226.729-.633 1.03-1.32l-1.892-1.444.728-.954 1.554 1.186c.189-.811.318-1.847.358-3.163-2.107-2.218-3.776-5.221-3.776-5.221 1.243 1.274 2.5 2.368 3.771 3.165-.041-1.282-.149-2.763-.34-4.472l-1.458.178-.145-1.192 1.46-.178c-.289-2.282-.715-4.936-1.309-8.021l-2.838.193-.082-1.197 2.687-.183c-1.438-7.209-3.758-16.652-7.319-29.003-6.271-.985-9.98-6.335-11.324-8.627-1.401.439-2.431.844-2.828 1.037-.518.251-.816-.591-.125-.975.45-.25.284-.349.107-.49s-.507-.11-.657-.11c-.3 0-.45-.45-.225-.675s.525-.525.225-.525-1.115-.984.075-1.2c.213-.038.637-.148 1.221-.3-1.166-1.859-2.951-4.892-1.966-9.55.035-.165.092-.323.14-.484-1.095-1.754-1.956-4.22-2.326-5.348-1.602.628-2.919.907-2.919.907s-.024-1.305-.138-2.654c-.359.323-.704.592-.987.779-.918.604-1.891.724-2.74.339-.853-.386-1.391-1.265-1.599-2.324-.327-1.663-.071-2.972.285-3.891-.217-.191-.564-.527-1.209-1.157l-4.062-3.864c-3.695-3.399-4.503-4.351-4.025-5.003 1.796-2.445 6.114-3.2 9.166-3.365-1.902-.77-3.226-2.493-3.391-3.685-.085-.614.1-1.121.508-1.393.516-.345 1.635-.04 3.164.462-1.332-7.876-.898-13.632 1.065-17.574.428-2.768 3.588-12.095 3.588-12.095 1-2.683 2.429-5.315 3.67-5.75.381-.134.771-.09 1.13.125 1.491.895-.567 7.587-2.259 12.063.113-.046.225-.094.34-.137 2.017-.757 3.905-1.098 5.599-1.187 3.157-.258 5.154.279 6.389.908.72-1.679 2.864-5.946 4.206-8.496.076-.143 2.525-5.401 4.55-4.801 1.274.377 1.004 1.942.447 3.802-.813 2.716-2.664 7.025-5.423 12.685.801.693 1.762 1.88 2.701 3.938 1.542 3.378 1.927 7.494 2.217 11.044.609 7.44 3.953 18.321 6.905 27.921l2.578 8.535c1.784 6.142 1.629 12.577-.739 16.429 2.58 4.998 8.829 16.725 13.071 28.359l2.302-.665.332 1.153-2.227.644c1.013 2.866 1.888 5.711 2.548 8.437l2.86-.255.107 1.196-2.691.239c.313 1.413.565 2.79.737 4.113zm-52.586-81.744c-.975.088-3.3.387-4.355.557.395.579 1.434 1.893 4.058 4.871 0 0 .152.173.273.311.062-.019.126-.038.126-.038.33-.114.82-.278 1.37-.142-.666-2.03-1.14-3.956-1.472-5.559zm47.935 84.848.683.312c-.078-1.986-.463-4.367-1.155-7.139l-1.923.171-.107-1.196 1.719-.153c-.616-2.285-1.425-4.815-2.427-7.587l-2.473.714-.332-1.153 2.393-.691c-.597-1.609-1.251-3.288-1.971-5.051-3.499-8.559-7.272-16.337-9.086-20.075-.307-.631-.532-1.097-.699-1.446-1.18.775-2.522 1.323-3.927 1.591 1.169 3.822 5.212 18.154 7.31 28.767l1.705-.117.082 1.197-1.558.107c.132.701.256 1.387.367 2.045.333 1.976.631 3.903.858 5.75l2.419-.296.145 1.192-2.425.296c.305 2.835.413 5.449.182 7.711 1.96.962 3.78 1.518 5.31 1.713l.061-2.332 1.2.032-.062 2.375c.538.003 1.034-.036 1.461-.131 1.25-.276 2.073-.955 2.448-2.02.289-.821.453-1.806.494-2.95l-1.191-.544z" fill="#231f20" transform="translate(223.52 595.095)"/></g><g fill="#007236"><path d="m0 0c-.196-1.503-.495-3.086-.872-4.718l-2.221.198c.734 2.987 1.122 5.544 1.161 7.663l2.052.938c.109-1.229.075-2.591-.12-4.081" transform="matrix(.6760511831 0 0 -.6760511831 179.7955661907 129.64509565367)"/><path d="m0 0c1.709.1 3.356-.557 4.518-1.804.912-.98 1.521-2.31 1.828-3.932l-1.908-.872c-.063 1.086-.229 2.04-.513 2.846-.485 1.379-1.574 2.291-3.146 2.639-.506.112-1.077.157-1.695.142l-.023.891c.31.037.621.071.939.09" transform="matrix(.6760511831 0 0 -.6760511831 175.4715428236 122.16864561978)"/><path d="m0 0 .022-.807c-1.579-.227-3.411-.835-5.382-1.847-.024.168-.052.33-.08.493 1.598.983 3.419 1.759 5.44 2.161" transform="matrix(.6760511831 0 0 -.6760511831 174.02817354769 122.3559117975)"/><path d="m0 0c-2.221 1.368-5.172.746-7.856-.442 2.433 1.368 5.212 2.318 7.63 1.67 1.187-.319 2.111-.922 2.813-1.793l-1.305-.996c-.338.713-.762 1.24-1.282 1.561" transform="matrix(.6760511831 0 0 -.6760511831 166.80051034918 120.72324819031)"/></g><path d="m0 0 1.14 1.324c.001-.17 0-.345-.003-.524z" fill="#231f20" transform="matrix(.6760511831 0 0 -.6760511831 166.90056592428 126.57717538476)"/><path d="m0 0 1.531 1.169c1.302-2.503 1.421-6.501.835-11.85l-2.207.269c.515 4.682.462 8.156-.159 10.412" fill="#007236" transform="matrix(.6760511831 0 0 -.6760511831 167.95655787228 122.57833263674)"/><path d="m0 0 2.206-.269c-.233-1.885-.542-3.922-.911-6.112-.096-.566-.201-1.152-.31-1.746l-2.273.155c.563 2.942.992 5.599 1.288 7.972" fill="#007236" transform="matrix(.6760511831 0 0 -.6760511831 167.97007889594 130.42323056541)"/><path d="m0 0 2.281-.155c-2.099-10.886-6.099-25.318-7.11-28.699-.843.087-1.651.098-2.422.04 3.296 11.458 5.713 21.07 7.251 28.814" fill="#007236" transform="matrix(.6760511831 0 0 -.6760511831 166.94248109763 136.61518335141)"/><path d="m0 0 .046.075c1.747-.453 4.279-1.084 6.957-1.546 2.624-.452 6.173-.823 8.661-.98.061-1.943-.239-6.743-4.275-9.787-2.653-2.002-5.995-2.54-8.938-1.438-2.325.869-3.971 2.61-4.403 4.655-.937 4.428.871 7.303 1.952 9.021" fill="#f4f3b8" transform="matrix(.6760511831 0 0 -.6760511831 152.8197718827 164.42184456345)"/><path d="m0 0c.03.193.368 1.026 3.498 3.906l4.082 3.883c.383.374.733.714.976.944.255-.424.467-.649.467-.649-.007.019-.52 2.88-.224 5.009.102.74.493 1.331 1.044 1.581.539.245 1.184.149 1.816-.266.49-.322.942-.687 1.344-1.061-.001-.008-.003-.018-.004-.027l.041-.007c.89-.835 1.492-1.708 1.476-2.251-.005-.141-.046-.322-.333-.487-1.26-.726-3.074 1.371-3.092 1.392 0 0 .215-.675.642-1.337.309-.924.217-2.331-.071-2.959-.155-.339-.386-.559-.685-.655-.291-.094-.602.014-.877.107-.3.104-.753.259-1.052-.114l-.378-.432c-4.679-5.308-4.596-5.599-4.49-5.968l.072-.252.283-.108c.466-.14 3.606-.545 4.965-.677-.207-1.099-.339-1.98-.416-2.554-4.315.098-7.774 1.255-9.084 2.982" fill="#7cb2b0" transform="matrix(.6760511831 0 0 -.6760511831 138.42326193861 185.73773836655)"/><path d="m0 0c-.099-.056-.191-.068-.303-.029-.917.321-1.962 3.126-2.587 4.803 0 0-2.037 5.43-3.158 9.099.849-.99 1.845-1.808 2.983-2.456 1.963-5.029 3.643-10.735 3.065-11.417" fill="#7cb2b0" transform="matrix(.6760511831 0 0 -.6760511831 149.92289256312 214.32929500216)"/><path d="m0 0-2.574-8.522c-3.111-10.118-6.326-20.58-6.943-28.124-.469-5.74-2.119-13.879-5.722-16.389 0 0 .351.004.907.282 2.964-6.055 6.629-13.564 5.518-14.082-1.125-.525-2.613 2.313-3.25 3.523-1.52 2.888-3.631 7.126-4.228 8.553.7.518.953.974.953.974-.057-.031-6.145-3.033-13.432-.301-6.499 2.438-8.793 10.116-6.831 22.815.056.02.108.037.165.056l.897.361c.666.3.786.354 1.339-.12l.699-.631c1.565-1.431 4.655-4.29 7.125-5.199 2.97-1.094 5.459-1.093 8.688 2.294 3.083 3.233 3.929 7.28 3.929 7.28-.018-.033-1.987-3.618-4.979-6.755-2.894-3.035-4.748-2.733-7.484-1.724-2.292.844-5.115 3.426-6.631 4.812l-.723.651c-1.015.871-1.637.591-2.357.268l-.807-.327c-2.518-.84-3.17-.817-3.335-.729-.083.056-.117.234-.086.461.104.756.983 2.186 2.896 2.806 2.566.833 4.273-.285 7.068-2.331 3.274-2.395 5.699-4.009 7.709-2.837 1.884 1.099 5.113 5.507 6.758 7.736 1.071 1.45 2.073 2.221 2.753 2.12.5-.074.813-.675.987-1.167 0 0 .527 1.736-.845 2.116-1.047.29-2.33-.463-3.653-2.255-1.493-2.022-4.603-6.461-6.317-7.46-1.651-.963-4.257.643-6.824 2.522-2.38 1.742-4.148 2.887-6.271 2.784.172 1.351.747 5.182 2.167 9.401l.117.347c.386 1.146.68 2.019.927 2.967.419-.093.897-.026 1.441.323.632.406.801.908.812 1.291.026.867-.639 1.917-1.434 2.809.12.905.175 1.628.196 2.144 1.225-.354 4.312-1.421 7.07-3.839 0 0-.513 2.1-3.584 3.661-.199.1-.397.193-.594.283.37.983 1.185 3.09 1.886 4.546.858-1.619 2.409-2.941 4.394-3.684 3.252-1.216 6.936-.629 9.853 1.571 4.376 3.301 4.739 8.329 4.668 10.501 1.118-.049 1.876-.036 1.993.058.375.3-.15.9-.45 1.05s-.3.525.075.6.825.675.45.75-.825.225-.675.45.825.975.15 1.05-6.375.075-10.65.675c-1.915.269-3.757.708-5.289 1.15 1.634 2.623 6.231 8.546 13.982 7.623 2.771-.329 4.923-1.626 6.398-3.854 2.373-3.585 2.746-9.318.998-15.334" fill="#7cb2b0" transform="matrix(.6760511831 0 0 -.6760511831 168.78607267394 170.0236046666)"/><path d="m0 0c-.458.579-.987 1.107-1.574 1.576.188.394.459.954.771 1.597 1.818 3.747 5.601 11.543 9.11 20.131.734 1.795 1.399 3.507 2.006 5.147l2.226-.643c-4.058-11.262-9.882-22.658-12.539-27.808" fill="#007236" transform="matrix(.6760511831 0 0 -.6760511831 168.58190521665 158.7477469837)"/><path d="m0 0-2.216.64c1.02 2.833 1.841 5.423 2.465 7.768l2.247-.199c-.662-2.65-1.52-5.418-2.496-8.209" fill="#007236" transform="matrix(.6760511831 0 0 -.6760511831 177.32933147476 139.18147364246)"/><path d="m0 0c0 .415-.057.817-.154 1.202-1.964.189-4.092.45-5.821.748-1.07.185-2.113.396-3.096.613-.459-.747-.729-1.622-.729-2.563 0-2.707 2.194-4.9 4.9-4.9 2.707 0 4.9 2.193 4.9 4.9" fill="#f15a40" transform="matrix(.6760511831 0 0 -.6760511831 161.59356413695 166.73461566083)"/><path d="m0 0c0-.829.627-1.5 1.399-1.5.773 0 1.4.671 1.4 1.5 0 .331-.103.635-.273.882-.685.078-1.37.162-2.033.252-.299-.274-.493-.678-.493-1.134" fill="#fff" transform="matrix(.6760511831 0 0 -.6760511831 158.6196149825 166.39659006928)"/></svg>